<!--?xml version="1.0" standalone="no"?-->
              <svg id="sw-js-blob-svg" viewBox="0 0 100 100" xmlns="http://www.w3.org/2000/svg" version="1.1">
                    <defs> 
                        <linearGradient id="sw-gradient" x1="0" x2="1" y1="1" y2="0">
                            <stop id="stop1" stop-color="rgba(248, 117, 55, 1)" offset="0%"></stop>
                            <stop id="stop2" stop-color="rgba(251, 168, 31, 1)" offset="100%"></stop>
                        </linearGradient>
                    </defs>
                <path fill="url(#sw-gradient)" d="M25.3,-31.8C31.6,-24.8,34.7,-15.8,36.6,-6.2C38.6,3.3,39.4,13.2,35.9,22.1C32.4,31.1,24.7,39,15.5,42.2C6.2,45.4,-4.6,43.9,-12,38.7C-19.4,33.5,-23.3,24.6,-28.1,16.2C-32.9,7.9,-38.7,0,-38.4,-7.7C-38.2,-15.5,-32,-23.1,-24.6,-29.9C-17.2,-36.7,-8.6,-42.6,0.5,-43.1C9.5,-43.7,19,-38.8,25.3,-31.8Z" width="100%" height="100%" transform="translate(50 50)" stroke-width="0" style="transition: all 0.3s ease 0s;"></path>
              </svg>